<?xml version="1.0" encoding="UTF-8"?>
<!DOCTYPE svg PUBLIC "-//W3C//DTD SVG 1.1//EN" "http://www.w3.org/Graphics/SVG/1.1/DTD/svg11.dtd">
<svg xmlns="http://www.w3.org/2000/svg" version="1.1" width="524px" height="75px" style="shape-rendering:geometricPrecision; text-rendering:geometricPrecision; image-rendering:optimizeQuality; fill-rule:evenodd; clip-rule:evenodd" xmlns:xlink="http://www.w3.org/1999/xlink">
<g><path style="opacity:0.944" fill="#000000" d="M 351.5,-0.5 C 356.833,-0.5 362.167,-0.5 367.5,-0.5C 367.5,22.8333 367.5,46.1667 367.5,69.5C 362.167,69.5 356.833,69.5 351.5,69.5C 352.731,46.165 352.731,22.8317 351.5,-0.5 Z"/></g>
<g><path style="opacity:0.89" fill="#000000" d="M 184.5,2.5 C 190.509,2.33385 196.509,2.50051 202.5,3C 204.608,3.35989 206.608,4.02655 208.5,5C 209.471,10.0717 209.805,15.2384 209.5,20.5C 191.277,11.3984 180.944,16.8984 178.5,37C 179.025,48.6892 185.025,55.5226 196.5,57.5C 201.188,55.8191 205.855,54.1525 210.5,52.5C 210.054,57.8518 209.387,63.1851 208.5,68.5C 196.823,72.619 185.49,71.7856 174.5,66C 168.512,61.1949 164.679,55.0282 163,47.5C 159.78,31.8649 163.613,18.3649 174.5,7C 177.815,5.1702 181.149,3.6702 184.5,2.5 Z"/></g>
<g><path style="opacity:0.934" fill="#000000" d="M 298.5,3.5 C 309.172,3.3335 319.839,3.50016 330.5,4C 336.66,4.8293 341.16,7.99597 344,13.5C 349.707,38.2936 339.874,49.6269 314.5,47.5C 314.274,54.8761 314.608,62.2094 315.5,69.5C 309.833,69.5 304.167,69.5 298.5,69.5C 298.5,47.5 298.5,25.5 298.5,3.5 Z M 314.5,16.5 C 319.121,15.9927 323.454,16.826 327.5,19C 331.221,30.4674 326.888,35.6341 314.5,34.5C 314.5,28.5 314.5,22.5 314.5,16.5 Z"/></g>
<g><path style="opacity:0.933" fill="#3b3b98" d="M 21.5,9.5 C 37.8367,9.3334 54.1701,9.50007 70.5,10C 81.1667,16.3333 91.8333,22.6667 102.5,29C 110.49,31.2755 118.49,33.4421 126.5,35.5C 126.5,37.1667 126.5,38.8333 126.5,40.5C 128.167,40.5 129.833,40.5 131.5,40.5C 131.5,45.1667 131.5,49.8333 131.5,54.5C 129.833,54.5 128.167,54.5 126.5,54.5C 126.5,55.8333 126.5,57.1667 126.5,58.5C 121.833,58.5 117.167,58.5 112.5,58.5C 110.917,47.8707 104.917,44.0374 94.5,47C 90.7901,49.5875 88.4568,53.0875 87.5,57.5C 75.8476,58.6659 64.1809,58.8325 52.5,58C 47.7312,44.4079 39.8979,42.2412 29,51.5C 27.7978,53.6775 27.2978,56.0108 27.5,58.5C 21.1667,58.5 14.8333,58.5 8.5,58.5C 8.5,56.8333 8.5,55.1667 8.5,53.5C 12.8333,53.5 17.1667,53.5 21.5,53.5C 21.5,51.8333 21.5,50.1667 21.5,48.5C 23.1667,48.5 24.8333,48.5 26.5,48.5C 26.5,47.5 26.5,46.5 26.5,45.5C 19.1667,45.5 11.8333,45.5 4.5,45.5C 4.5,43.8333 4.5,42.1667 4.5,40.5C 10.1667,40.5 15.8333,40.5 21.5,40.5C 21.5,38.8333 21.5,37.1667 21.5,35.5C 24.5,35.5 27.5,35.5 30.5,35.5C 30.5,34.5 30.5,33.5 30.5,32.5C 23.1667,32.5 15.8333,32.5 8.5,32.5C 8.5,30.8333 8.5,29.1667 8.5,27.5C 23.1667,27.5 37.8333,27.5 52.5,27.5C 52.5,26.1667 52.5,24.8333 52.5,23.5C 35.1667,23.5 17.8333,23.5 0.5,23.5C 0.5,21.8333 0.5,20.1667 0.5,18.5C 16.1667,18.5 31.8333,18.5 47.5,18.5C 47.5,17.5 47.5,16.5 47.5,15.5C 38.8333,15.5 30.1667,15.5 21.5,15.5C 21.5,13.5 21.5,11.5 21.5,9.5 Z"/></g>
<g><path style="opacity:0.89" fill="#000000" d="M 230.5,18.5 C 236.245,18.2111 241.912,18.7111 247.5,20C 254.524,22.6818 257.691,27.8485 257,35.5C 257.5,46.8284 257.667,58.1618 257.5,69.5C 251.605,70.0542 245.938,69.3876 240.5,67.5C 226.047,74.9401 217.38,70.6068 214.5,54.5C 214.729,46.1946 218.729,40.6946 226.5,38C 231.56,36.8187 236.56,35.4854 241.5,34C 239.626,31.9822 237.293,30.8156 234.5,30.5C 229.819,31.504 225.153,32.504 220.5,33.5C 220.176,29.4454 220.509,25.4454 221.5,21.5C 224.582,20.3655 227.582,19.3655 230.5,18.5 Z M 240.5,46.5 C 241.806,49.6868 241.806,53.0202 240.5,56.5C 233.6,60.14 230.434,58.14 231,50.5C 233.968,48.4889 237.134,47.1556 240.5,46.5 Z"/></g>
<g><path style="opacity:0.904" fill="#000000" d="M 277.5,18.5 C 278.822,18.33 279.989,18.6634 281,19.5C 281,21.5 281,23.5 281,25.5C 283.826,20.8531 287.993,18.5197 293.5,18.5C 292.703,24.4844 292.037,30.4844 291.5,36.5C 285.965,34.0615 282.465,35.7282 281,41.5C 280.248,50.8678 280.415,60.2011 281.5,69.5C 275.833,69.5 270.167,69.5 264.5,69.5C 265.666,53.4988 265.833,37.4988 265,21.5C 269.311,20.7258 273.477,19.7258 277.5,18.5 Z"/></g>
<g><path style="opacity:0.892" fill="#000000" d="M 388.5,18.5 C 394.565,18.2614 400.565,18.7614 406.5,20C 411.541,21.7085 414.375,25.2085 415,30.5C 415.265,43.5203 415.765,56.5203 416.5,69.5C 410.369,70.0922 404.536,69.4255 399,67.5C 388.142,73.8705 379.809,71.5372 374,60.5C 371.45,51.1135 374.283,43.9469 382.5,39C 387.677,37.0392 393.01,35.7058 398.5,35C 398.957,34.586 399.291,34.086 399.5,33.5C 397.956,31.7527 395.956,30.7527 393.5,30.5C 388.458,31.3952 383.458,32.3952 378.5,33.5C 378.234,29.3951 378.734,25.3951 380,21.5C 382.87,20.3068 385.704,19.3068 388.5,18.5 Z M 399.5,46.5 C 402.344,52.9445 400.344,56.9445 393.5,58.5C 388.098,56.1584 387.431,52.9917 391.5,49C 394.31,48.2177 396.977,47.3844 399.5,46.5 Z"/></g>
<g><path style="opacity:0.873" fill="#000000" d="M 441.5,18.5 C 447.362,18.1519 453.028,18.9852 458.5,21C 459.144,25.414 459.144,29.914 458.5,34.5C 455.984,34.2447 453.65,33.4114 451.5,32C 447.495,30.9019 443.995,31.7352 441,34.5C 436.356,42.6132 437.19,50.1132 443.5,57C 448.606,59.177 453.439,58.677 458,55.5C 458.333,55.8333 458.667,56.1667 459,56.5C 459.667,60.5 459.667,64.5 459,68.5C 448.869,72.2579 439.036,71.4245 429.5,66C 418.694,51.4326 419.027,37.0993 430.5,23C 434.053,20.8792 437.72,19.3792 441.5,18.5 Z"/></g>
<g><path style="opacity:0.881" fill="#000000" d="M 481.5,18.5 C 494.12,16.5479 502.287,21.5479 506,33.5C 507.095,38.7797 507.595,44.113 507.5,49.5C 499.826,49.3336 492.159,49.5003 484.5,50C 478.564,50.1565 477.897,52.1565 482.5,56C 489.903,59.4753 497.069,58.9753 504,54.5C 505.595,58.6463 505.928,62.9796 505,67.5C 494.918,72.4487 484.751,72.6154 474.5,68C 468.648,64.4736 465.148,59.307 464,52.5C 462.104,41.9664 464.271,32.4664 470.5,24C 473.99,21.588 477.657,19.7547 481.5,18.5 Z M 482.5,30.5 C 489.128,29.133 492.462,31.7997 492.5,38.5C 488.167,38.5 483.833,38.5 479.5,38.5C 479.394,35.3855 480.394,32.7188 482.5,30.5 Z"/></g>
<g><path style="opacity:0.916" fill="#3a3b98" d="M 37.5,48.5 C 46.4726,48.9802 49.9726,53.6469 48,62.5C 42.9581,68.602 37.6248,68.9354 32,63.5C 28.8377,56.5142 30.6711,51.5142 37.5,48.5 Z"/></g>
<g><path style="opacity:0.919" fill="#3a3b97" d="M 98.5,48.5 C 108.268,49.3742 111.434,54.3742 108,63.5C 102.375,68.9354 97.0419,68.602 92,62.5C 90.1888,55.7958 92.3554,51.1291 98.5,48.5 Z"/></g>
</svg>
